<svg width="13" height="16" viewBox="0 0 13 16" fill="none" xmlns="http://www.w3.org/2000/svg">
<path d="M6.49999 8.00016C6.93541 8.00016 7.30828 7.845 7.61861 7.53466C7.92842 7.22486 8.08332 6.85225 8.08332 6.41683C8.08332 5.98141 7.92842 5.60854 7.61861 5.2982C7.30828 4.9884 6.93541 4.8335 6.49999 4.8335C6.06457 4.8335 5.69196 4.9884 5.38216 5.2982C5.07182 5.60854 4.91666 5.98141 4.91666 6.41683C4.91666 6.85225 5.07182 7.22486 5.38216 7.53466C5.69196 7.845 6.06457 8.00016 6.49999 8.00016ZM6.49999 15.62C6.39443 15.62 6.28888 15.6002 6.18332 15.5606C6.07777 15.521 5.98541 15.4682 5.90624 15.4022C3.97985 13.7002 2.54166 12.1203 1.59166 10.6625C0.641657 9.20429 0.166656 7.84183 0.166656 6.57516C0.166656 4.596 0.80342 3.01926 2.07695 1.84495C3.34995 0.670649 4.8243 0.0834961 6.49999 0.0834961C8.17568 0.0834961 9.65003 0.670649 10.923 1.84495C12.1966 3.01926 12.8333 4.596 12.8333 6.57516C12.8333 7.84183 12.3583 9.20429 11.4083 10.6625C10.4583 12.1203 9.02013 13.7002 7.09374 15.4022C7.01457 15.4682 6.92221 15.521 6.81666 15.5606C6.7111 15.6002 6.60555 15.62 6.49999 15.62Z" fill="#D9552A"/>
</svg>
