<svg width="17" height="13" viewBox="0 0 17 13" fill="none" xmlns="http://www.w3.org/2000/svg">
<path d="M14.8333 0.166504H2.16668C1.29584 0.166504 0.583344 0.879004 0.583344 1.74984V11.2498C0.583344 12.1207 1.29584 12.8332 2.16668 12.8332H14.8333C15.7042 12.8332 16.4167 12.1207 16.4167 11.2498V1.74984C16.4167 0.879004 15.7042 0.166504 14.8333 0.166504ZM14.5167 3.53109L9.33918 6.769C8.82459 7.09359 8.17543 7.09359 7.66084 6.769L2.48334 3.53109C2.40396 3.48653 2.33445 3.42632 2.27901 3.35411C2.22356 3.28191 2.18335 3.1992 2.1608 3.11101C2.13825 3.02281 2.13382 2.93095 2.1478 2.841C2.16178 2.75104 2.19386 2.66486 2.24211 2.58766C2.29036 2.51046 2.35377 2.44386 2.4285 2.39188C2.50324 2.33989 2.58774 2.30362 2.6769 2.28524C2.76606 2.26686 2.85803 2.26677 2.94722 2.28496C3.03642 2.30316 3.121 2.33926 3.19584 2.39109L8.50001 5.70817L13.8042 2.39109C13.879 2.33926 13.9636 2.30316 14.0528 2.28496C14.142 2.26677 14.234 2.26686 14.3231 2.28524C14.4123 2.30362 14.4968 2.33989 14.5715 2.39188C14.6463 2.44386 14.7097 2.51046 14.7579 2.58766C14.8062 2.66486 14.8382 2.75104 14.8522 2.841C14.8662 2.93095 14.8618 3.02281 14.8392 3.11101C14.8167 3.1992 14.7765 3.28191 14.721 3.35411C14.6656 3.42632 14.5961 3.48653 14.5167 3.53109Z" fill="#D9552B"/>
</svg>
