<svg width="17" height="17" viewBox="0 0 17 17" fill="none" xmlns="http://www.w3.org/2000/svg">
<path d="M11.0709 11.7538L12.4009 10.4238C12.5801 10.2469 12.8067 10.1258 13.0534 10.0752C13.3 10.0246 13.556 10.0467 13.7903 10.1388L15.4113 10.786C15.648 10.8821 15.8511 11.0461 15.9948 11.2575C16.1385 11.4688 16.2164 11.7179 16.2188 11.9735V14.9422C16.2174 15.116 16.1808 15.2878 16.1113 15.4472C16.0418 15.6065 15.9408 15.7501 15.8143 15.8694C15.6878 15.9887 15.5385 16.0811 15.3754 16.1411C15.2122 16.2012 15.0386 16.2276 14.865 16.2188C3.50657 15.5122 1.21469 5.89346 0.781253 2.21221C0.761133 2.03144 0.779516 1.84845 0.835194 1.67529C0.890872 1.50213 0.982583 1.34272 1.10429 1.20755C1.226 1.07238 1.37495 0.964508 1.54135 0.891037C1.70774 0.817566 1.8878 0.780158 2.06969 0.781274H4.9375C5.19342 0.782032 5.44325 0.859333 5.65487 1.00324C5.86649 1.14714 6.03022 1.35106 6.125 1.58877L6.77219 3.20971C6.86734 3.4431 6.89162 3.69934 6.84199 3.94644C6.79235 4.19354 6.67102 4.42054 6.49313 4.59909L5.16313 5.92909C5.16313 5.92909 5.92907 11.1125 11.0709 11.7538Z" fill="#D9552A"/>
</svg>
