<svg width="22" height="22" viewBox="0 0 22 22" fill="none" xmlns="http://www.w3.org/2000/svg">
<path d="M11 0.4375C9.16558 0.437361 7.36276 0.914973 5.76902 1.82331C4.17528 2.73165 2.84558 4.0394 1.91084 5.6178C0.976096 7.1962 0.468543 8.99083 0.438149 10.825C0.407756 12.6592 0.85557 14.4696 1.7375 16.0781L0.87422 19.1148C0.793028 19.3943 0.787874 19.6903 0.859288 19.9724C0.930702 20.2545 1.0761 20.5124 1.28047 20.7195C1.48483 20.9249 1.74096 21.0711 2.0217 21.1426C2.30244 21.2141 2.5973 21.2083 2.875 21.1258L5.92188 20.2625C7.33389 21.0364 8.90414 21.4772 10.5126 21.5513C12.1211 21.6254 13.7252 21.3307 15.2024 20.6899C16.6796 20.049 17.9906 19.079 19.0355 17.8538C20.0803 16.6286 20.8312 15.1808 21.2307 13.6209C21.6302 12.0611 21.6679 10.4306 21.3407 8.85399C21.0136 7.27738 20.3303 5.79645 19.3431 4.52436C18.356 3.25228 17.091 2.22273 15.645 1.5144C14.199 0.806075 12.6102 0.437723 11 0.4375ZM14.25 13.4375H7.75C7.53451 13.4375 7.32785 13.3519 7.17548 13.1995C7.0231 13.0472 6.9375 12.8405 6.9375 12.625C6.9375 12.4095 7.0231 12.2028 7.17548 12.0505C7.32785 11.8981 7.53451 11.8125 7.75 11.8125H14.25C14.4655 11.8125 14.6722 11.8981 14.8245 12.0505C14.9769 12.2028 15.0625 12.4095 15.0625 12.625C15.0625 12.8405 14.9769 13.0472 14.8245 13.1995C14.6722 13.3519 14.4655 13.4375 14.25 13.4375ZM14.25 10.1875H7.75C7.53451 10.1875 7.32785 10.1019 7.17548 9.94952C7.0231 9.79715 6.9375 9.59049 6.9375 9.375C6.9375 9.15951 7.0231 8.95285 7.17548 8.80048C7.32785 8.6481 7.53451 8.5625 7.75 8.5625H14.25C14.4655 8.5625 14.6722 8.6481 14.8245 8.80048C14.9769 8.95285 15.0625 9.15951 15.0625 9.375C15.0625 9.59049 14.9769 9.79715 14.8245 9.94952C14.6722 10.1019 14.4655 10.1875 14.25 10.1875Z" fill="#D9552B"/>
</svg>
