<svg width="54" height="60" viewBox="0 0 54 60" fill="none" xmlns="http://www.w3.org/2000/svg">
<path d="M36.3747 57.525L32.7185 46.875L34.406 41.85C34.4848 41.6161 34.5167 41.369 34.5 41.1227C34.4833 40.8765 34.4182 40.6359 34.3085 40.4148C34.1988 40.1937 34.0466 39.9963 33.8607 39.834C33.6747 39.6717 33.4586 39.5476 33.2247 39.4688C32.9908 39.39 32.7436 39.3581 32.4974 39.3748C32.2511 39.3915 32.0106 39.4566 31.7894 39.5662C31.5683 39.6759 31.371 39.8281 31.2087 40.0141C31.0463 40.2 30.9222 40.4161 30.8435 40.65L29.3997 45H24.5997L23.2497 40.65C23.0906 40.1776 22.7503 39.7878 22.3037 39.5662C21.8572 39.3447 21.3409 39.3097 20.8685 39.4688C20.396 39.6279 20.0062 39.9682 19.7847 40.4148C19.5631 40.8613 19.5281 41.3776 19.6872 41.85L21.3747 46.875L17.8122 57.525C17.6531 57.9975 17.6881 58.5137 17.9097 58.9603C18.1312 59.4069 18.521 59.7472 18.9935 59.9063C19.4659 60.0654 19.9822 60.0304 20.4287 59.8088C20.8753 59.5873 21.2156 59.1975 21.3747 58.725L24.5997 48.75H29.3997L32.7185 58.725C32.8442 59.0975 33.0839 59.4209 33.4035 59.6497C33.7232 59.8785 34.1066 60.0011 34.4997 60C34.8057 60.0163 35.1109 59.9573 35.3888 59.8283C35.6667 59.6993 35.9087 59.5041 36.0937 59.2599C36.2787 59.0157 36.4011 58.7299 36.4501 58.4274C36.4991 58.125 36.4732 57.8152 36.3747 57.525Z" fill="#D9552A"/>
<path d="M43.0687 30L34.5 27.9375C37.3596 26.2865 39.5946 23.738 40.8582 20.6874C42.1218 17.6367 42.3435 14.2543 41.4889 11.0648C40.6343 7.87533 38.7511 5.05695 36.1314 3.04681C33.5118 1.03667 30.302 -0.052887 27 -0.052887C23.698 -0.052887 20.4882 1.03667 17.8686 3.04681C15.2489 5.05695 13.3657 7.87533 12.5111 11.0648C11.6565 14.2543 11.8782 17.6367 13.1418 20.6874C14.4054 23.738 16.6404 26.2865 19.5 27.9375L10.9312 30C8.05372 30.6622 5.48354 32.2753 3.63608 34.5787C1.78861 36.882 0.771811 39.7411 0.75 42.6937V50.625C0.75 51.1223 0.947544 51.5992 1.29917 51.9508C1.65081 52.3024 2.12772 52.5 2.625 52.5C3.12228 52.5 3.59919 52.3024 3.95083 51.9508C4.30246 51.5992 4.5 51.1223 4.5 50.625V42.6937C4.50125 40.5733 5.22131 38.5159 6.54262 36.8574C7.86393 35.199 9.70843 34.0375 11.775 33.5625L14.2688 32.9812L15.7688 43.3875C15.832 43.8348 16.0546 44.2442 16.3957 44.5405C16.7367 44.8368 17.1732 44.9999 17.625 45C18.375 45 17.925 45.1312 27 39.6937C36.5625 45.4312 35.6813 45 36.375 45C36.83 45.0045 37.2711 44.8434 37.616 44.5467C37.961 44.25 38.1863 43.838 38.25 43.3875L39.75 32.9812L42.2437 33.5625C44.3068 34.0411 46.1471 35.2042 47.4647 36.8623C48.7824 38.5205 49.4997 40.5759 49.5 42.6937V56.25H2.625C2.12772 56.25 1.65081 56.4475 1.29917 56.7992C0.947544 57.1508 0.75 57.6277 0.75 58.125C0.75 58.6223 0.947544 59.0992 1.29917 59.4508C1.65081 59.8024 2.12772 60 2.625 60H51.375C51.8723 60 52.3492 59.8024 52.7008 59.4508C53.0525 59.0992 53.25 58.6223 53.25 58.125V42.6937C53.2282 39.7411 52.2114 36.882 50.3639 34.5787C48.5165 32.2753 45.9463 30.6622 43.0687 30ZM27 34.5L23.9813 30.75L27 30L30.0188 30.6937L27 34.5ZM15.75 15C15.75 12.775 16.4098 10.5999 17.646 8.74983C18.8821 6.89978 20.6391 5.45783 22.6948 4.60635C24.7505 3.75486 27.0125 3.53208 29.1948 3.96616C31.3771 4.40024 33.3816 5.4717 34.955 7.04504C36.5283 8.61838 37.5998 10.6229 38.0338 12.8052C38.4679 14.9875 38.2451 17.2495 37.3936 19.3052C36.5422 21.3608 35.1002 23.1179 33.2502 24.354C31.4001 25.5902 29.225 26.25 27 26.25C24.0163 26.25 21.1548 25.0647 19.045 22.9549C16.9353 20.8452 15.75 17.9837 15.75 15ZM19.0875 40.0687L17.9438 32.1375L19.9312 31.6875L24.1875 36.9937L19.0875 40.0687ZM34.9125 40.0687L29.8125 36.9937L34.0688 31.6875L36.0563 32.1375L34.9125 40.0687Z" fill="#141414"/>
</svg>
