<svg width="60" height="60" viewBox="0 0 60 60" fill="none" xmlns="http://www.w3.org/2000/svg">
<path d="M46.8746 18.75C46.5159 18.7509 46.1646 18.6489 45.8622 18.4562C45.5597 18.2634 45.3189 17.988 45.1683 17.6625L39.3746 4.91251C39.291 4.68535 39.1611 4.47806 38.9931 4.30383C38.8251 4.12961 38.6227 3.99227 38.3987 3.90056C38.1747 3.80885 37.9341 3.76477 37.6921 3.77113C37.4502 3.7775 37.2122 3.83416 36.9933 3.93751L8.36206 18.5438C8.14292 18.657 7.90361 18.726 7.6578 18.7468C7.412 18.7676 7.1645 18.7397 6.92945 18.6649C6.69441 18.59 6.47641 18.4696 6.2879 18.3105C6.09939 18.1513 5.94407 17.9567 5.83081 17.7375C5.71754 17.5184 5.64855 17.2791 5.62777 17.0333C5.60699 16.7875 5.63483 16.54 5.7097 16.3049C5.78456 16.0699 5.90499 15.8519 6.06411 15.6634C6.22323 15.4748 6.41792 15.3195 6.63706 15.2063L35.2121 0.600014C35.8801 0.263134 36.6101 0.0667427 37.3569 0.0229626C38.1038 -0.0208176 38.8518 0.0889426 39.5546 0.345468C40.2574 0.601993 40.9002 0.99984 41.4432 1.51445C41.9863 2.02906 42.4181 2.64951 42.7121 3.33751L48.5808 16.0875C48.7132 16.3736 48.7713 16.6884 48.7498 17.0029C48.7284 17.3173 48.6279 17.6213 48.4579 17.8867C48.2878 18.1521 48.0536 18.3703 47.7768 18.5212C47.5001 18.6721 47.1898 18.7508 46.8746 18.75Z" fill="#D9552A"/>
<path d="M58.125 28.125V20.625C58.125 19.1332 57.5324 17.7024 56.4775 16.6475C55.4226 15.5926 53.9918 15 52.5 15H5.625C4.13316 15 2.70242 15.5926 1.64752 16.6475C0.592632 17.7024 0 19.1332 0 20.625L0 54.375C0 55.8668 0.592632 57.2976 1.64752 58.3525C2.70242 59.4074 4.13316 60 5.625 60H11.25C11.7473 60 12.2242 59.8025 12.5758 59.4508C12.9275 59.0992 13.125 58.6223 13.125 58.125C13.125 57.6277 12.9275 57.1508 12.5758 56.7992C12.2242 56.4475 11.7473 56.25 11.25 56.25H5.625C5.12772 56.25 4.65081 56.0525 4.29917 55.7008C3.94754 55.3492 3.75 54.8723 3.75 54.375V20.625C3.75 20.1277 3.94754 19.6508 4.29917 19.2992C4.65081 18.9475 5.12772 18.75 5.625 18.75H52.5C52.9973 18.75 53.4742 18.9475 53.8258 19.2992C54.1775 19.6508 54.375 20.1277 54.375 20.625V28.125H46.875C44.3886 28.125 42.004 29.1127 40.2459 30.8709C38.4877 32.629 37.5 35.0136 37.5 37.5C37.5 39.9864 38.4877 42.371 40.2459 44.1291C42.004 45.8873 44.3886 46.875 46.875 46.875H54.375V54.375C54.375 54.8723 54.1775 55.3492 53.8258 55.7008C53.4742 56.0525 52.9973 56.25 52.5 56.25H18.75C18.2527 56.25 17.7758 56.4475 17.4242 56.7992C17.0725 57.1508 16.875 57.6277 16.875 58.125C16.875 58.6223 17.0725 59.0992 17.4242 59.4508C17.7758 59.8025 18.2527 60 18.75 60H52.5C53.9918 60 55.4226 59.4074 56.4775 58.3525C57.5324 57.2976 58.125 55.8668 58.125 54.375V46.875C58.6223 46.875 59.0992 46.6775 59.4508 46.3258C59.8025 45.9742 60 45.4973 60 45V30C60 29.5027 59.8025 29.0258 59.4508 28.6742C59.0992 28.3225 58.6223 28.125 58.125 28.125ZM41.25 37.5C41.25 36.0082 41.8426 34.5774 42.8975 33.5225C43.9524 32.4676 45.3832 31.875 46.875 31.875H56.25V43.125H46.875C45.3832 43.125 43.9524 42.5324 42.8975 41.4775C41.8426 40.4226 41.25 38.9918 41.25 37.5Z" fill="#141414"/>
<path d="M46.875 39.375C46.5042 39.375 46.1416 39.265 45.8333 39.059C45.525 38.853 45.2846 38.5601 45.1427 38.2175C45.0008 37.8749 44.9637 37.4979 45.036 37.1342C45.1084 36.7705 45.287 36.4364 45.5492 36.1742C45.8114 35.912 46.1455 35.7334 46.5092 35.661C46.8729 35.5887 47.2499 35.6258 47.5925 35.7677C47.9351 35.9096 48.228 36.15 48.434 36.4583C48.64 36.7666 48.75 37.1292 48.75 37.5C48.75 37.9973 48.5525 38.4742 48.2008 38.8258C47.8492 39.1775 47.3723 39.375 46.875 39.375Z" fill="#D9552A"/>
</svg>
