<svg width="54" height="60" viewBox="0 0 54 60" fill="none" xmlns="http://www.w3.org/2000/svg">
<path d="M26.588 60C19.2221 58.3343 12.6457 54.2034 7.94717 48.2911C3.24867 42.3787 0.709711 35.0393 0.750484 27.4875V13.125C0.750484 12.6277 0.948028 12.1508 1.29966 11.7992C1.65129 11.4475 2.1282 11.25 2.62548 11.25C6.99391 11.3055 11.3196 10.3849 15.2868 8.55538C19.2541 6.72585 22.7627 4.03355 25.5567 0.675006C25.7327 0.46268 25.9533 0.291773 26.2028 0.174466C26.4524 0.0571587 26.7247 -0.00366211 27.0005 -0.00366211C27.2762 -0.00366211 27.5486 0.0571587 27.7981 0.174466C28.0477 0.291773 28.2683 0.46268 28.4442 0.675006C31.2365 4.0356 34.7448 6.72933 38.7124 8.55906C42.6801 10.3888 47.0066 11.3082 51.3755 11.25C51.8728 11.25 52.3497 11.4475 52.7013 11.7992C53.0529 12.1508 53.2505 12.6277 53.2505 13.125C53.2505 13.6223 53.0529 14.0992 52.7013 14.4508C52.3497 14.8025 51.8728 15 51.3755 15C46.8208 15.0564 42.3038 14.1693 38.1088 12.3945C33.9138 10.6196 30.1317 7.9956 27.0005 4.68751C21.1236 10.9156 13.0548 14.6137 4.50048 15V27.525C4.47092 34.1465 6.67606 40.5843 10.7592 45.7971C14.8423 51.0099 20.5646 54.6928 27.0005 56.25C33.4426 54.6913 39.1697 51.0029 43.2535 45.7824C47.3373 40.562 49.5385 34.1154 49.5005 27.4875V20.625C49.5005 20.1277 49.698 19.6508 50.0497 19.2992C50.4013 18.9475 50.8782 18.75 51.3755 18.75C51.8728 18.75 52.3497 18.9475 52.7013 19.2992C53.0529 19.6508 53.2505 20.1277 53.2505 20.625V27.4875C53.2913 35.0393 50.7523 42.3787 46.0538 48.2911C41.3553 54.2034 34.7789 58.3343 27.413 60C27.1431 60.0752 26.8578 60.0752 26.588 60Z" fill="#141414"/>
<path d="M27.9376 28.125H26.0626C25.3167 28.125 24.6013 27.8287 24.0739 27.3012C23.5464 26.7738 23.2501 26.0584 23.2501 25.3125C23.2501 24.5666 23.5464 23.8512 24.0739 23.3238C24.6013 22.7963 25.3167 22.5 26.0626 22.5H32.6251C33.1224 22.5 33.5993 22.3025 33.951 21.9508C34.3026 21.5992 34.5001 21.1223 34.5001 20.625C34.5001 20.1277 34.3026 19.6508 33.951 19.2992C33.5993 18.9475 33.1224 18.75 32.6251 18.75H28.8751V16.875C28.8751 16.3777 28.6776 15.9008 28.326 15.5492C27.9743 15.1975 27.4974 15 27.0001 15C26.5029 15 26.0259 15.1975 25.6743 15.5492C25.3227 15.9008 25.1251 16.3777 25.1251 16.875V18.8438C23.3846 18.9681 21.7648 19.7787 20.622 21.0973C19.4792 22.4159 18.9071 24.1345 19.0314 25.875C19.1557 27.6155 19.9663 29.2353 21.285 30.3781C22.6036 31.5209 24.3221 32.0931 26.0626 31.9687H27.9376C28.6836 31.9687 29.3989 32.2651 29.9264 32.7925C30.4538 33.32 30.7501 34.0353 30.7501 34.7812C30.7501 35.5272 30.4538 36.2425 29.9264 36.77C29.3989 37.2974 28.6836 37.5937 27.9376 37.5937H21.3751C20.8779 37.5937 20.4009 37.7913 20.0493 38.1429C19.6977 38.4946 19.5001 38.9715 19.5001 39.4687C19.5001 39.966 19.6977 40.4429 20.0493 40.7946C20.4009 41.1462 20.8779 41.3437 21.3751 41.3437H25.1251V43.2187C25.1251 43.716 25.3227 44.1929 25.6743 44.5446C26.0259 44.8962 26.5029 45.0937 27.0001 45.0937C27.4974 45.0937 27.9743 44.8962 28.326 44.5446C28.6776 44.1929 28.8751 43.716 28.8751 43.2187V41.25C30.6156 41.1257 32.2354 40.315 33.3782 38.9964C34.521 37.6778 35.0932 35.9592 34.9689 34.2188C34.8446 32.4783 34.0339 30.8585 32.7153 29.7157C31.3967 28.5729 29.6781 28.0007 27.9376 28.125Z" fill="#D9552A"/>
</svg>
