<svg width="60" height="60" viewBox="0 0 60 60" fill="none" xmlns="http://www.w3.org/2000/svg">
<path d="M52.5 18.75C52.9973 18.75 53.4742 18.5525 53.8258 18.2008C54.1775 17.8492 54.375 17.3723 54.375 16.875V13.125C54.375 11.6332 53.7824 10.2024 52.7275 9.14752C51.6726 8.09263 50.2418 7.5 48.75 7.5H46.875V5.625C46.875 4.13316 46.2824 2.70242 45.2275 1.64752C44.1726 0.592632 42.7418 0 41.25 0H11.25C9.75816 0 8.32742 0.592632 7.27252 1.64752C6.21763 2.70242 5.625 4.13316 5.625 5.625V46.875C5.625 48.3668 6.21763 49.7976 7.27252 50.8525C8.32742 51.9074 9.75816 52.5 11.25 52.5H13.125V54.375C13.125 55.8668 13.7176 57.2976 14.7725 58.3525C15.8274 59.4074 17.2582 60 18.75 60H48.75C50.2418 60 51.6726 59.4074 52.7275 58.3525C53.7824 57.2976 54.375 55.8668 54.375 54.375V24.375C54.375 23.8777 54.1775 23.4008 53.8258 23.0492C53.4742 22.6975 52.9973 22.5 52.5 22.5C52.0027 22.5 51.5258 22.6975 51.1742 23.0492C50.8225 23.4008 50.625 23.8777 50.625 24.375V54.375C50.625 54.8723 50.4275 55.3492 50.0758 55.7008C49.7242 56.0525 49.2473 56.25 48.75 56.25H18.75C18.2527 56.25 17.7758 56.0525 17.4242 55.7008C17.0725 55.3492 16.875 54.8723 16.875 54.375V13.125C16.875 12.6277 17.0725 12.1508 17.4242 11.7992C17.7758 11.4475 18.2527 11.25 18.75 11.25H48.75C49.2473 11.25 49.7242 11.4475 50.0758 11.7992C50.4275 12.1508 50.625 12.6277 50.625 13.125V16.875C50.625 17.3723 50.8225 17.8492 51.1742 18.2008C51.5258 18.5525 52.0027 18.75 52.5 18.75ZM13.125 13.125V48.75H11.25C10.7527 48.75 10.2758 48.5525 9.92418 48.2008C9.57254 47.8492 9.375 47.3723 9.375 46.875V5.625C9.375 5.12772 9.57254 4.65081 9.92418 4.29917C10.2758 3.94754 10.7527 3.75 11.25 3.75H41.25C41.7473 3.75 42.2242 3.94754 42.5758 4.29917C42.9275 4.65081 43.125 5.12772 43.125 5.625V7.5H18.75C17.2582 7.5 15.8274 8.09263 14.7725 9.14752C13.7176 10.2024 13.125 11.6332 13.125 13.125Z" fill="white"/>
<path d="M26.25 45H22.5C22.0027 45 21.5258 44.8025 21.1742 44.4508C20.8225 44.0992 20.625 43.6223 20.625 43.125C20.625 42.6277 20.8225 42.1508 21.1742 41.7992C21.5258 41.4475 22.0027 41.25 22.5 41.25H26.25C26.7473 41.25 27.2242 41.4475 27.5758 41.7992C27.9275 42.1508 28.125 42.6277 28.125 43.125C28.125 43.6223 27.9275 44.0992 27.5758 44.4508C27.2242 44.8025 26.7473 45 26.25 45Z" fill="#D9552B"/>
<path d="M45 45H33.75C33.2527 45 32.7758 44.8025 32.4242 44.4508C32.0725 44.0992 31.875 43.6223 31.875 43.125C31.875 42.6277 32.0725 42.1508 32.4242 41.7992C32.7758 41.4475 33.2527 41.25 33.75 41.25H45C45.4973 41.25 45.9742 41.4475 46.3258 41.7992C46.6775 42.1508 46.875 42.6277 46.875 43.125C46.875 43.6223 46.6775 44.0992 46.3258 44.4508C45.9742 44.8025 45.4973 45 45 45Z" fill="#D9552B"/>
<path d="M26.25 52.5H22.5C22.0027 52.5 21.5258 52.3025 21.1742 51.9508C20.8225 51.5992 20.625 51.1223 20.625 50.625C20.625 50.1277 20.8225 49.6508 21.1742 49.2992C21.5258 48.9475 22.0027 48.75 22.5 48.75H26.25C26.7473 48.75 27.2242 48.9475 27.5758 49.2992C27.9275 49.6508 28.125 50.1277 28.125 50.625C28.125 51.1223 27.9275 51.5992 27.5758 51.9508C27.2242 52.3025 26.7473 52.5 26.25 52.5Z" fill="#D9552B"/>
<path d="M45 52.5H33.75C33.2527 52.5 32.7758 52.3025 32.4242 51.9508C32.0725 51.5992 31.875 51.1223 31.875 50.625C31.875 50.1277 32.0725 49.6508 32.4242 49.2992C32.7758 48.9475 33.2527 48.75 33.75 48.75H45C45.4973 48.75 45.9742 48.9475 46.3258 49.2992C46.6775 49.6508 46.875 50.1277 46.875 50.625C46.875 51.1223 46.6775 51.5992 46.3258 51.9508C45.9742 52.3025 45.4973 52.5 45 52.5Z" fill="#D9552B"/>
<path d="M45.4167 15H22.0833C21.6966 15 21.3256 15.1207 21.0521 15.3356C20.7786 15.5505 20.625 15.8419 20.625 16.1458V34.4792C20.625 34.7831 20.7786 35.0745 21.0521 35.2894C21.3256 35.5043 21.6966 35.625 22.0833 35.625H45.4167C45.8034 35.625 46.1744 35.5043 46.4479 35.2894C46.7214 35.0745 46.875 34.7831 46.875 34.4792V16.1458C46.875 15.8419 46.7214 15.5505 46.4479 15.3356C46.1744 15.1207 45.8034 15 45.4167 15ZM29.375 24.1667H23.5417V21.875H29.375V24.1667ZM32.2917 21.875H43.9583V24.1667H32.2917V21.875ZM23.5417 26.4583H29.375V28.75H23.5417V26.4583ZM32.2917 26.4583H43.9583V28.75H32.2917V26.4583ZM43.9583 19.5833H32.2917V17.2917H43.9583V19.5833ZM29.375 17.2917V19.5833H23.5417V17.2917H29.375ZM23.5417 31.0417H29.375V33.3333H23.5417V31.0417ZM32.2917 33.3333V31.0417H43.9583V33.3333H32.2917Z" fill="#D9552B"/>
</svg>
