<svg width="60" height="60" viewBox="0 0 60 60" fill="none" xmlns="http://www.w3.org/2000/svg">
<path d="M46.0687 37.4999L38.1938 35.6249C42.0094 33.7711 45.0836 30.6782 46.9142 26.8514C48.7449 23.0247 49.2238 18.6902 48.2726 14.5561C47.3215 10.422 44.9966 6.7326 41.6777 4.09056C38.3588 1.44852 34.2421 0.0100098 30 0.0100098C25.7579 0.0100098 21.6412 1.44852 18.3223 4.09056C15.0034 6.7326 12.6785 10.422 11.7274 14.5561C10.7762 18.6902 11.2551 23.0247 13.0858 26.8514C14.9164 30.6782 17.9906 33.7711 21.8062 35.6249L13.9312 37.4999C10.9809 38.1779 8.35563 39.8549 6.50015 42.2469C4.64468 44.6388 3.6731 47.5986 3.75 50.6249C3.75 51.1222 3.94754 51.5991 4.29917 51.9507C4.65081 52.3024 5.12772 52.4999 5.625 52.4999C6.12228 52.4999 6.59919 52.3024 6.95083 51.9507C7.30246 51.5991 7.5 51.1222 7.5 50.6249C7.4008 48.4314 8.07472 46.2726 9.40423 44.525C10.7337 42.7775 12.6345 41.552 14.775 41.0624L17.2688 40.4812L18.7688 50.8874C18.832 51.3347 19.0546 51.7442 19.3957 52.0404C19.7367 52.3367 20.1732 52.4998 20.625 52.4999C21.375 52.4999 20.925 52.6312 30 47.1937C39.5625 52.9312 38.6813 52.4999 39.375 52.4999C39.83 52.5044 40.2711 52.3433 40.616 52.0466C40.961 51.7499 41.1863 51.3379 41.25 50.8874L42.75 40.4812L45.2437 41.0624C47.3068 41.5411 49.1471 42.7042 50.4647 44.3623C51.7824 46.0204 52.4997 48.0758 52.5 50.1937V56.2499H5.625C5.12772 56.2499 4.65081 56.4475 4.29917 56.7991C3.94754 57.1507 3.75 57.6276 3.75 58.1249C3.75 58.6222 3.94754 59.0991 4.29917 59.4507C4.65081 59.8024 5.12772 59.9999 5.625 59.9999H54.375C54.8723 59.9999 55.3492 59.8024 55.7008 59.4507C56.0525 59.0991 56.25 58.6222 56.25 58.1249V50.1937C56.2282 47.241 55.2114 44.382 53.3639 42.0786C51.5165 39.7752 48.9463 38.1621 46.0687 37.4999ZM30 41.9999L26.9813 38.2499L30 37.4999L33.0188 38.1937L30 41.9999ZM15 18.7499C15 15.7832 15.8797 12.8831 17.528 10.4164C19.1762 7.94962 21.5189 6.02703 24.2597 4.89172C27.0006 3.75641 30.0166 3.45936 32.9264 4.03813C35.8361 4.61691 38.5088 6.04552 40.6066 8.14331C42.7044 10.2411 44.133 12.9138 44.7118 15.8236C45.2906 18.7333 44.9935 21.7493 43.8582 24.4902C42.7229 27.2311 40.8003 29.5737 38.3336 31.222C35.8668 32.8702 32.9667 33.7499 30 33.7499C26.0218 33.7499 22.2064 32.1696 19.3934 29.3565C16.5804 26.5435 15 22.7282 15 18.7499ZM22.0875 47.5687L20.9438 39.6374L22.9312 39.1874L27.1875 44.4937L22.0875 47.5687ZM37.9125 47.5687L32.8125 44.4937L37.0688 39.1874L39.0562 39.6374L37.9125 47.5687Z" fill="white"/>
<path d="M18.75 12.8777L22.1594 11.5385H24.3829V25.9615H21.8259V14.5467L19.38 15.3091L18.75 12.8777Z" fill="#D9552B"/>
<path d="M33.8277 18.4615C35.0259 19.2582 35.625 20.419 35.625 21.9437C35.625 23.2761 35.205 24.3269 34.365 25.0962C33.5374 25.8654 32.4071 26.25 30.9741 26.25C29.5289 26.25 28.3924 25.8654 27.5647 25.0962C26.7371 24.3269 26.3233 23.2761 26.3233 21.9437C26.3233 20.4327 26.9162 19.272 28.1021 18.4615C27.2003 17.7473 26.7495 16.7514 26.7495 15.4739C26.7495 14.1415 27.1509 13.1044 27.9539 12.3626C28.7692 11.6209 29.7759 11.25 30.9741 11.25C32.1847 11.25 33.1853 11.6209 33.9759 12.3626C34.7788 13.1044 35.1803 14.1415 35.1803 15.4739C35.1803 16.7514 34.7294 17.7473 33.8277 18.4615ZM32.6418 15.6181C32.6418 15.0962 32.4874 14.6841 32.1785 14.3819C31.8697 14.0797 31.4683 13.9286 30.9741 13.9286C30.48 13.9286 30.0786 14.0797 29.7697 14.3819C29.4609 14.6841 29.3065 15.0962 29.3065 15.6181C29.3065 16.1538 29.4609 16.5728 29.7697 16.875C30.0786 17.1772 30.48 17.3283 30.9741 17.3283C31.4683 17.3283 31.8697 17.1772 32.1785 16.875C32.4874 16.5728 32.6418 16.1538 32.6418 15.6181ZM32.5121 23.0357C32.895 22.6786 33.0865 22.1909 33.0865 21.5728C33.0865 20.9547 32.895 20.4739 32.5121 20.1305C32.1291 19.7734 31.6165 19.5948 30.9741 19.5948C30.3318 19.5948 29.8191 19.7734 29.4362 20.1305C29.0533 20.4739 28.8618 20.9547 28.8618 21.5728C28.8618 22.1909 29.0533 22.6786 29.4362 23.0357C29.8191 23.3929 30.3318 23.5714 30.9741 23.5714C31.6165 23.5714 32.1291 23.3929 32.5121 23.0357Z" fill="#D9552B"/>
<path d="M39.1875 18.925H41.25V20.4375H39.1875V22.5H37.675V20.4375H35.625V18.925H37.675V16.875H39.1875V18.925Z" fill="#D9552B"/>
</svg>
