<svg width="60" height="46" viewBox="0 0 60 46" fill="none" xmlns="http://www.w3.org/2000/svg">
<path d="M54.375 45.5H18.75C18.2527 45.5 17.7758 45.3025 17.4242 44.9508C17.0725 44.5992 16.875 44.1223 16.875 43.625C16.875 43.1277 17.0725 42.6508 17.4242 42.2992C17.7758 41.9475 18.2527 41.75 18.75 41.75H54.375C54.8723 41.75 55.3492 41.5525 55.7008 41.2008C56.0525 40.8492 56.25 40.3723 56.25 39.875V6.125C56.25 5.62772 56.0525 5.15081 55.7008 4.79918C55.3492 4.44754 54.8723 4.25 54.375 4.25H5.625C5.12772 4.25 4.65081 4.44754 4.29917 4.79918C3.94754 5.15081 3.75 5.62772 3.75 6.125V39.875C3.75 40.3723 3.94754 40.8492 4.29917 41.2008C4.65081 41.5525 5.12772 41.75 5.625 41.75H11.25C11.7473 41.75 12.2242 41.9475 12.5758 42.2992C12.9275 42.6508 13.125 43.1277 13.125 43.625C13.125 44.1223 12.9275 44.5992 12.5758 44.9508C12.2242 45.3025 11.7473 45.5 11.25 45.5H5.625C4.13316 45.5 2.70242 44.9074 1.64752 43.8525C0.592632 42.7976 0 41.3668 0 39.875L0 6.125C0 4.63316 0.592632 3.20242 1.64752 2.14752C2.70242 1.09263 4.13316 0.5 5.625 0.5H54.375C55.8668 0.5 57.2976 1.09263 58.3525 2.14752C59.4074 3.20242 60 4.63316 60 6.125V39.875C60 41.3668 59.4074 42.7976 58.3525 43.8525C57.2976 44.9074 55.8668 45.5 54.375 45.5Z" fill="white"/>
<path d="M20.625 23H11.25C10.2554 23 9.30161 22.6049 8.59835 21.9016C7.89509 21.1984 7.5 20.2446 7.5 19.25V13.625C7.5 12.6304 7.89509 11.6766 8.59835 10.9734C9.30161 10.2701 10.2554 9.875 11.25 9.875H20.625C21.6196 9.875 22.5734 10.2701 23.2766 10.9734C23.9799 11.6766 24.375 12.6304 24.375 13.625V19.25C24.375 20.2446 23.9799 21.1984 23.2766 21.9016C22.5734 22.6049 21.6196 23 20.625 23ZM11.25 13.625V19.25H20.625V13.625H11.25Z" fill="#D9552B"/>
<path d="M46.875 38H39.375C37.8832 38 36.4524 37.4074 35.3975 36.3525C34.3426 35.2976 33.75 33.8668 33.75 32.375C33.75 30.8832 34.3426 29.4524 35.3975 28.3975C36.4524 27.3426 37.8832 26.75 39.375 26.75H46.875C48.3668 26.75 49.7976 27.3426 50.8525 28.3975C51.9074 29.4524 52.5 30.8832 52.5 32.375C52.5 33.8668 51.9074 35.2976 50.8525 36.3525C49.7976 37.4074 48.3668 38 46.875 38ZM39.375 30.5C38.8777 30.5 38.4008 30.6975 38.0492 31.0492C37.6975 31.4008 37.5 31.8777 37.5 32.375C37.5 32.8723 37.6975 33.3492 38.0492 33.7008C38.4008 34.0525 38.8777 34.25 39.375 34.25H46.875C47.3723 34.25 47.8492 34.0525 48.2008 33.7008C48.5525 33.3492 48.75 32.8723 48.75 32.375C48.75 31.8777 48.5525 31.4008 48.2008 31.0492C47.8492 30.6975 47.3723 30.5 46.875 30.5H39.375Z" fill="white"/>
<path d="M9.375 36.125C8.87772 36.125 8.40081 35.9275 8.04918 35.5758C7.69754 35.2242 7.5 34.7473 7.5 34.25V30.5C7.5 30.0027 7.69754 29.5258 8.04918 29.1742C8.40081 28.8225 8.87772 28.625 9.375 28.625C9.87228 28.625 10.3492 28.8225 10.7008 29.1742C11.0525 29.5258 11.25 30.0027 11.25 30.5V34.25C11.25 34.7473 11.0525 35.2242 10.7008 35.5758C10.3492 35.9275 9.87228 36.125 9.375 36.125Z" fill="white"/>
<path d="M16.875 36.125C16.3777 36.125 15.9008 35.9275 15.5492 35.5758C15.1975 35.2242 15 34.7473 15 34.25V30.5C15 30.0027 15.1975 29.5258 15.5492 29.1742C15.9008 28.8225 16.3777 28.625 16.875 28.625C17.3723 28.625 17.8492 28.8225 18.2008 29.1742C18.5525 29.5258 18.75 30.0027 18.75 30.5V34.25C18.75 34.7473 18.5525 35.2242 18.2008 35.5758C17.8492 35.9275 17.3723 36.125 16.875 36.125Z" fill="white"/>
<path d="M24.375 36.125C23.8777 36.125 23.4008 35.9275 23.0492 35.5758C22.6975 35.2242 22.5 34.7473 22.5 34.25V30.5C22.5 30.0027 22.6975 29.5258 23.0492 29.1742C23.4008 28.8225 23.8777 28.625 24.375 28.625C24.8723 28.625 25.3492 28.8225 25.7008 29.1742C26.0525 29.5258 26.25 30.0027 26.25 30.5V34.25C26.25 34.7473 26.0525 35.2242 25.7008 35.5758C25.3492 35.9275 24.8723 36.125 24.375 36.125Z" fill="white"/>
<path d="M50.625 13.625H35.625C35.1277 13.625 34.6508 13.4275 34.2992 13.0758C33.9475 12.7242 33.75 12.2473 33.75 11.75C33.75 11.2527 33.9475 10.7758 34.2992 10.4242C34.6508 10.0725 35.1277 9.875 35.625 9.875H50.625C51.1223 9.875 51.5992 10.0725 51.9508 10.4242C52.3025 10.7758 52.5 11.2527 52.5 11.75C52.5 12.2473 52.3025 12.7242 51.9508 13.0758C51.5992 13.4275 51.1223 13.625 50.625 13.625Z" fill="white"/>
</svg>
