<svg width="54" height="60" viewBox="0 0 54 60" fill="none" xmlns="http://www.w3.org/2000/svg">
<path d="M43.0687 37.4999L35.1938 35.6249C39.0094 33.7711 42.0836 30.6782 43.9142 26.8514C45.7449 23.0247 46.2238 18.6902 45.2726 14.5561C44.3215 10.422 41.9966 6.7326 38.6777 4.09056C35.3588 1.44852 31.2421 0.0100098 27 0.0100098C22.7579 0.0100098 18.6412 1.44852 15.3223 4.09056C12.0034 6.7326 9.67846 10.422 8.72735 14.5561C7.77624 18.6902 8.25512 23.0247 10.0858 26.8514C11.9164 30.6782 14.9906 33.7711 18.8062 35.6249L10.9312 37.4999C7.9809 38.1779 5.35563 39.8549 3.50015 42.2469C1.64468 44.6388 0.673101 47.5986 0.75 50.6249C0.75 51.1222 0.947544 51.5991 1.29917 51.9507C1.65081 52.3024 2.12772 52.4999 2.625 52.4999C3.12228 52.4999 3.59919 52.3024 3.95083 51.9507C4.30246 51.5991 4.5 51.1222 4.5 50.6249C4.4008 48.4314 5.07472 46.2726 6.40423 44.525C7.73374 42.7775 9.63448 41.552 11.775 41.0624L14.2688 40.4812L15.7688 50.8874C15.832 51.3347 16.0546 51.7442 16.3957 52.0404C16.7367 52.3367 17.1732 52.4998 17.625 52.4999C18.375 52.4999 17.925 52.6312 27 47.1937C36.5625 52.9312 35.6813 52.4999 36.375 52.4999C36.83 52.5044 37.2711 52.3433 37.616 52.0466C37.961 51.7499 38.1863 51.3379 38.25 50.8874L39.75 40.4812L42.2437 41.0624C44.3068 41.5411 46.1471 42.7042 47.4647 44.3623C48.7824 46.0204 49.4997 48.0758 49.5 50.1937V56.2499H2.625C2.12772 56.2499 1.65081 56.4475 1.29917 56.7991C0.947544 57.1507 0.75 57.6276 0.75 58.1249C0.75 58.6222 0.947544 59.0991 1.29917 59.4507C1.65081 59.8024 2.12772 59.9999 2.625 59.9999H51.375C51.8723 59.9999 52.3492 59.8024 52.7008 59.4507C53.0525 59.0991 53.25 58.6222 53.25 58.1249V50.1937C53.2282 47.241 52.2114 44.382 50.3639 42.0786C48.5165 39.7752 45.9463 38.1621 43.0687 37.4999ZM27 41.9999L23.9813 38.2499L27 37.4999L30.0188 38.1937L27 41.9999ZM12 18.7499C12 15.7832 12.8797 12.8831 14.528 10.4164C16.1762 7.94962 18.5189 6.02703 21.2597 4.89172C24.0006 3.75641 27.0166 3.45936 29.9264 4.03813C32.8361 4.61691 35.5088 6.04552 37.6066 8.14331C39.7044 10.2411 41.133 12.9138 41.7118 15.8236C42.2906 18.7333 41.9935 21.7493 40.8582 24.4902C39.7229 27.2311 37.8003 29.5737 35.3336 31.222C32.8668 32.8702 29.9667 33.7499 27 33.7499C23.0218 33.7499 19.2064 32.1696 16.3934 29.3565C13.5804 26.5435 12 22.7282 12 18.7499ZM19.0875 47.5687L17.9438 39.6374L19.9312 39.1874L24.1875 44.4937L19.0875 47.5687ZM34.9125 47.5687L29.8125 44.4937L34.0688 39.1874L36.0562 39.6374L34.9125 47.5687Z" fill="white"/>
</svg>
